<?xml version="1.0" standalone="no"?>
<!DOCTYPE svg PUBLIC "-//W3C//DTD SVG 20010904//EN"
 "http://www.w3.org/TR/2001/REC-SVG-20010904/DTD/svg10.dtd">
<svg version="1.0" xmlns="http://www.w3.org/2000/svg"
 width="260.000000pt" height="260.000000pt" viewBox="0 0 260.000000 260.000000"
 preserveAspectRatio="xMidYMid meet">
<metadata>
Created by potrace 1.14, written by Peter Selinger 2001-2017
</metadata>
<g transform="translate(0.000000,260.000000) scale(0.100000,-0.100000)"
fill="#000000" stroke="none">
<path d="M0 1300 l0 -1300 1300 0 1300 0 0 1300 0 1300 -1300 0 -1300 0 0
-1300z m1280 930 c0 -26 3 -30 29 -30 25 0 29 -4 35 -37 3 -21 6 -100 6 -175
l0 -138 -285 0 -285 0 0 -160 0 -160 210 0 210 0 0 -30 c0 -27 3 -30 30 -30
25 0 30 -4 30 -25 0 -19 5 -25 21 -25 15 0 19 -4 15 -16 -3 -9 -6 -33 -6 -55
0 -35 -3 -39 -25 -39 -20 0 -25 -6 -31 -36 -4 -22 -2 -45 6 -59 7 -13 10 -31
7 -39 -5 -11 0 -16 13 -16 13 0 20 -7 20 -20 0 -19 -7 -20 -185 -20 l-185 0 0
-30 0 -29 -82 -3 c-70 -3 -83 -6 -86 -20 -2 -13 3 -18 17 -18 16 0 21 -6 21
-25 0 -23 4 -25 45 -25 60 0 62 -25 3 -33 -24 -3 -44 -11 -46 -16 -2 -6 -26
-11 -54 -11 -66 0 -60 -23 8 -30 37 -4 43 -7 27 -12 -28 -8 -30 -28 -3 -35 19
-5 20 -14 20 -213 0 -115 -3 -215 -6 -224 -5 -13 -24 -16 -105 -16 -81 0 -99
-3 -99 -15 0 -12 -17 -15 -90 -15 -89 0 -90 0 -90 25 0 16 6 25 15 25 8 0 15
7 15 15 0 12 18 15 105 15 l105 0 0 30 0 30 -75 0 c-60 0 -75 -3 -75 -15 0
-12 -17 -15 -95 -15 l-95 0 0 40 0 40 50 0 c47 0 50 2 50 25 0 23 -3 25 -50
25 l-50 0 0 85 c0 81 1 85 23 85 22 0 22 1 -3 14 -17 8 -29 10 -38 3 -18 -14
-27 0 -12 19 11 13 11 19 1 36 -16 25 -8 34 12 14 13 -14 17 -14 27 -1 7 8 16
12 21 9 5 -3 9 4 9 16 0 18 -3 19 -20 10 -14 -8 -26 -8 -40 0 -26 14 -26 24 0
17 11 -3 22 -2 25 3 3 4 -6 11 -20 14 -27 7 -30 13 -16 34 10 17 53 12 59 -7
3 -10 -2 -11 -19 -6 -28 9 -24 3 8 -14 22 -11 23 -10 23 27 0 37 -1 39 -27 34
-18 -3 -30 1 -40 13 -18 25 -17 65 2 65 10 0 15 -10 15 -30 0 -20 5 -30 15
-30 10 0 15 11 15 35 0 19 4 35 10 35 6 0 11 65 12 163 l3 162 38 3 c29 3 37
7 37 23 0 17 -7 19 -60 19 l-60 0 0 410 0 410 495 0 495 0 0 -30z m520 0 c0
-27 3 -30 30 -30 25 0 30 -4 30 -25 0 -16 6 -25 15 -25 13 0 15 -48 15 -370
l0 -370 -40 0 -41 0 1 -305 c1 -286 3 -306 20 -315 10 -5 26 -7 36 -3 13 5 16
3 11 -10 -6 -16 12 -17 213 -17 l220 0 0 -30 c0 -25 4 -30 25 -30 20 0 25 -5
25 -25 0 -18 5 -25 20 -25 15 0 20 -7 20 -25 0 -20 5 -25 25 -25 18 0 25 -5
25 -20 0 -15 -7 -20 -25 -20 -14 0 -25 -4 -25 -10 0 -5 -20 -10 -45 -10 -38 0
-45 -3 -45 -20 0 -17 7 -20 41 -20 32 0 42 4 46 20 5 17 14 20 59 20 47 0 54
-2 54 -20 0 -17 -7 -20 -44 -20 -65 0 -106 -10 -106 -27 0 -8 9 -17 20 -20 17
-4 20 -14 20 -54 l0 -49 -185 0 c-158 0 -185 2 -185 15 0 13 -35 15 -259 15
-270 0 -271 0 -271 41 0 5 79 9 185 9 158 0 185 -2 185 -15 0 -13 28 -15 190
-15 l190 0 0 30 0 30 -165 0 c-140 0 -165 2 -165 15 0 13 -36 15 -260 15
l-260 0 0 225 0 225 50 0 c47 0 50 2 50 25 0 23 -3 25 -50 25 l-50 0 0 635 0
635 200 0 200 0 0 -30z m-870 -1330 c0 -5 -15 -10 -32 -10 -18 0 -43 -3 -55
-6 -17 -5 -23 -2 -23 10 0 13 11 16 55 16 30 0 55 -4 55 -10z m30 -50 c0 -6
-37 -10 -90 -10 -53 0 -90 4 -90 10 0 6 37 10 90 10 53 0 90 -4 90 -10z m1580
-375 c0 -12 -14 -15 -65 -15 -51 0 -65 3 -65 15 0 12 14 15 65 15 51 0 65 -3
65 -15z"/>
<path d="M680 1930 l0 -30 275 0 275 0 0 30 0 30 -275 0 -275 0 0 -30z"/>
<path d="M820 1191 l0 -31 154 0 c150 0 154 1 159 22 4 12 4 25 1 28 -3 3 -75
7 -160 9 l-154 3 0 -31z"/>
<path d="M630 1145 c0 -9 9 -15 24 -15 13 0 26 -7 30 -15 3 -9 19 -15 41 -15
32 0 35 2 35 30 l0 30 -65 0 c-51 0 -65 -3 -65 -15z"/>
<path d="M500 960 c0 -6 28 -10 65 -10 37 0 65 4 65 10 0 6 -28 10 -65 10 -37
0 -65 -4 -65 -10z"/>
<path d="M645 960 c3 -5 14 -10 23 -10 15 0 15 2 2 10 -20 13 -33 13 -25 0z"/>
<path d="M314 826 c-3 -8 -1 -23 5 -33 9 -15 10 -13 11 15 0 34 -7 42 -16 18z"/>
<path d="M1720 1490 c0 -16 5 -30 10 -30 6 0 10 14 10 30 0 17 -4 30 -10 30
-5 0 -10 -13 -10 -30z"/>
<path d="M1720 768 c0 -4 7 -8 15 -8 8 0 15 4 15 8 0 5 -7 9 -15 9 -8 0 -15
-4 -15 -9z"/>
<path d="M2190 580 c0 -16 7 -20 30 -20 23 0 30 4 30 20 0 16 -7 20 -30 20
-23 0 -30 -4 -30 -20z"/>
</g>
</svg>
